<svg width="50" height="12" viewBox="0 0 50 12" fill="none" xmlns="http://www.w3.org/2000/svg"><g opacity=".3" fill="#fff"><path d="M35.2858 8.74206h2.2259c.7004 0 1.2647-.56711 1.2647-1.26466V1.26466C38.7764.564278 38.2093 0 37.5117 0h-4.1484v11.5379h1.9225V8.74206zm0-6.81954h1.3441c.1219 0 .2211.09924.2211.22117v4.45185c0 .12193-.0992.22117-.2211.22117h-1.3441V1.92252zM22.1089 0h-1.9253v11.5379h1.9253V1.92252h1.7184v9.61538h1.9225V0H22.1089zM32.3534 9.90181V1.63612C32.3534.731577 31.6218 0 30.7172 0h-2.3223c-.9045 0-1.6361.731577-1.6361 1.63612v8.26569c0 .90459.7316 1.63609 1.6361 1.63609h2.3223c.9046 0 1.6362-.7315 1.6362-1.63609zm-2.2685-.28639h-1.0577c-.1899 0-.3459-.15312-.3459-.34594V2.26846c0-.18999.1531-.34594.3459-.34594h1.0577c.19 0 .346.15595.346.34594V9.26948c0 .19282-.156.34594-.346.34594zM41.0879 1.92252v9.61538h1.9226V1.92252h1.5227L44.7742 0h-5.45l.2354 1.92252h1.5283zM50.0003 11.5379l-.329-1.92248h-2.2712V6.73164h1.5935V4.80913h-1.5935V1.92252h2.2712L50.0003 0h-4.5228v11.5379h4.5228zM15.6467 11.5379h3.5473l-.4878-1.92248H16.744c-.1417 0-.2552-.11343-.2552-.2552v-7.1825c0-.14178.1135-.2552.2552-.2552h1.9622L19.1911 0h-3.5444c-.5983 0-1.0832.484882-1.0832 1.08319v9.37151c0 .5984.4849 1.0832 1.0832 1.0832zM1.92252 6.73164h1.72119v4.80626h1.92251V0H3.64371v4.80913H1.92252V0H0v11.5379h1.92252V6.73164zM8.59696 9.06815l1.58794-.01134.1701 2.48109h1.8176L11.3276 0H7.48258L6.5752 11.5379h1.8176l.20416-2.46975zm1.0605-7.23637l.39134 5.26565H8.76142l.39131-5.26565h.50473z"/></g></svg>